<svg xmlns="http://www.w3.org/2000/svg" viewBox="0 0 279.19 307.12"><defs><style>.cls-1{fill-rule:evenodd;}</style></defs><g id="Layer_2" data-name="Layer 2"><g id="Layer_1-2" data-name="Layer 1"><path class="cls-1" d="M114.25,5.39a61.41,61.41,0,0,1,50.33,0l.24.11,86.31,40.43.33.16a50.46,50.46,0,0,1,27,53.78C271.3,144.4,249.57,232.19,169,296.73l-.15.12h0a47.4,47.4,0,0,1-58.92,0l-.15-.12h0C29.24,232.18,7.52,144.36.35,99.83a7.47,7.47,0,0,1-.12-1c-1.79-19.71,7-42.92,28.88-53L113.92,5.54Zm11.5,25.44L41,71.18l-.22.1C32.25,75.17,27.18,85.14,28,95.91c6.83,42,27,121.07,99.19,179a19.49,19.49,0,0,0,24.47,0c72.49-58.14,92.52-137.58,99.27-179.48v-.08A22.53,22.53,0,0,0,239.1,71.13l-86-40.28A33.49,33.49,0,0,0,125.75,30.83Z"/><path class="cls-1" d="M203.79,86.54a14,14,0,0,1,2.82,19.54L144,189.84a14,14,0,0,1-22.28.1L86.61,143.87A14,14,0,0,1,108.82,127l23.87,31.36,51.56-68.95A14,14,0,0,1,203.79,86.54Z"/></g></g></svg>