<svg xmlns="http://www.w3.org/2000/svg" viewBox="0 0 312.74 314.08"><g id="Layer_2" data-name="Layer 2"><g id="Layer_1-2" data-name="Layer 1"><path d="M144.38,281.26H55.31c-7.81,0-15.62-4.69-18.75-10.94-4.68-6.25-4.68-12.5-1.56-20.31,18.75-43.75,60.94-73.44,109.38-73.44s89.07-40.63,89.07-89.07S192.82,0,142.82,0C94.38,0,53.75,40.63,53.75,89.07c0,28.12,12.5,53.12,32.82,68.75-35.94,14.06-67.19,43.75-82.82,81.25C-2.5,254.7-.94,273.45,8.44,287.51c10.94,15.63,26.56,25,45.31,25h89.07c9.37,0,15.62-6.25,15.62-15.62S152.19,281.26,144.38,281.26ZM85,89.07c0-31.26,26.57-57.82,57.82-57.82s57.81,26.56,57.81,57.82-26.56,57.81-57.81,57.81S85,120.32,85,89.07Z"/><path d="M306.89,168.76c-7.82-4.69-17.19-3.13-21.88,4.69l-65.63,96.87-25-32.81c-4.69-6.25-15.62-7.81-21.87-3.12s-7.82,15.62-3.13,21.87l39.06,51.57c3.13,4.68,7.82,6.25,12.5,6.25s9.38-3.13,12.51-6.25L310,192.2C314.7,182.82,313.14,173.45,306.89,168.76Z"/></g></g></svg>